<svg width="25" height="24" viewBox="0 0 25 24" fill="none" xmlns="http://www.w3.org/2000/svg" tint="#9DA4AE" style="width:24px;height:24px" type="home-navbar" dark="#9DA4AE" light="#9DA4AE"><path d="M13.4823 2.50472C13.131 2.22758 12.9553 2.08901 12.7613 2.03574C12.5902 1.98874 12.4098 1.98874 12.2387 2.03574C12.0447 2.08901 11.869 2.22758 11.5177 2.50472L4.73539 7.855C4.28202 8.21264 4.05534 8.39146 3.89203 8.61541C3.74737 8.81378 3.6396 9.03726 3.57403 9.27486C3.5 9.5431 3.5 9.83437 3.5 10.4169V17.7549C3.5 18.891 3.5 19.459 3.71799 19.8929C3.90973 20.2746 4.21569 20.5849 4.59202 20.7794C5.01984 21.0005 5.5799 21.0005 6.7 21.0005H8.7C8.98003 21.0005 9.12004 21.0005 9.227 20.9452C9.32108 20.8966 9.39757 20.819 9.4455 20.7236C9.5 20.6151 9.5 20.4731 9.5 20.1891V14.5093C9.5 13.9413 9.5 13.6573 9.60899 13.4403C9.70487 13.2495 9.85785 13.0943 10.046 12.9971C10.2599 12.8865 10.5399 12.8865 11.1 12.8865H13.9C14.4601 12.8865 14.7401 12.8865 14.954 12.9971C15.1422 13.0943 15.2951 13.2495 15.391 13.4403C15.5 13.6573 15.5 13.9413 15.5 14.5093V20.1891C15.5 20.4731 15.5 20.6151 15.5545 20.7236C15.6024 20.819 15.6789 20.8966 15.773 20.9452C15.88 21.0005 16.02 21.0005 16.3 21.0005H18.3C19.4201 21.0005 19.9802 21.0005 20.408 20.7794C20.7843 20.5849 21.0903 20.2746 21.282 19.8929C21.5 19.459 21.5 18.891 21.5 17.7549V10.4169C21.5 9.83437 21.5 9.5431 21.426 9.27486C21.3604 9.03726 21.2526 8.81378 21.108 8.61541C20.9447 8.39146 20.718 8.21264 20.2646 7.855L13.4823 2.50472Z" stroke="#9DA4AE" stroke-width="1.5" stroke-linecap="round" stroke-linejoin="round"></path></svg>
