<svg width="25" height="24" viewBox="0 0 25 24" fill="none" xmlns="http://www.w3.org/2000/svg" tint="#1780EA" style="width:24px;height:24px" type="settings" dark="#1780EA" light="#1780EA"><path fill-rule="evenodd" clip-rule="evenodd" d="M11 2.25C10.6425 2.25 10.3347 2.50237 10.2646 2.85296L9.89444 4.70413C9.65169 4.79019 9.41377 4.88793 9.18173 4.99743L7.61315 3.95171C7.31568 3.7534 6.91959 3.79262 6.6668 4.04542L4.54542 6.1668C4.29262 6.41959 4.2534 6.81568 4.45171 7.11315L5.49751 8.68185C5.38805 8.91394 5.29039 9.15178 5.20433 9.3944L3.35296 9.76456C3.00237 9.83465 2.75 10.1425 2.75 10.5V13.5C2.75 13.8575 3.00237 14.1653 3.35296 14.2354L5.20413 14.6056C5.29019 14.8483 5.38793 15.0862 5.49743 15.3183L4.45171 16.8869C4.2534 17.1843 4.29262 17.5804 4.54542 17.8332L6.66679 19.9546C6.91959 20.2074 7.31568 20.2466 7.61315 20.0483L9.18185 19.0025C9.41394 19.1119 9.65178 19.2096 9.8944 19.2957L10.2646 21.147C10.3347 21.4976 10.6425 21.75 11 21.75H14C14.3575 21.75 14.6653 21.4976 14.7354 21.147L15.1056 19.2959C15.3483 19.2098 15.5862 19.1121 15.8183 19.0026L17.3869 20.0483C17.6843 20.2466 18.0804 20.2074 18.3332 19.9546L20.4546 17.8332C20.7074 17.5804 20.7466 17.1843 20.5483 16.8869L19.5025 15.3182C19.6119 15.0861 19.7096 14.8482 19.7957 14.6056L21.647 14.2354C21.9976 14.1653 22.25 13.8575 22.25 13.5V10.5C22.25 10.1425 21.9976 9.83465 21.647 9.76456L19.7959 9.39444C19.7098 9.15169 19.6121 8.91377 19.5026 8.68173L20.5483 7.11315C20.7466 6.81568 20.7074 6.41959 20.4546 6.16679L18.3332 4.04542C18.0804 3.79262 17.6843 3.7534 17.3869 3.95171L15.8182 4.99751C15.5861 4.88805 15.3482 4.79039 15.1056 4.70433L14.7354 2.85296C14.6653 2.50237 14.3575 2.25 14 2.25H11ZM11.2791 5.42967L11.6149 3.75H13.3851L13.7209 5.42967C13.7757 5.70366 13.9783 5.92449 14.2465 6.00267C14.692 6.13251 15.1144 6.30583 15.5074 6.52208C15.7525 6.65695 16.0523 6.64421 16.285 6.48904L17.7073 5.54085L18.9592 6.79269L18.011 8.21498C17.8557 8.44781 17.843 8.7477 17.9781 8.99282C18.1943 9.38542 18.3678 9.808 18.4972 10.253C18.5752 10.5215 18.7962 10.7243 19.0703 10.7791L20.75 11.1149V12.8851L19.0703 13.2209C18.7963 13.2757 18.5755 13.4783 18.4973 13.7465C18.3675 14.192 18.1942 14.6144 17.9779 15.0074C17.8431 15.2525 17.8558 15.5523 18.011 15.785L18.9592 17.2073L17.7073 18.4592L16.285 17.511C16.0522 17.3557 15.7523 17.343 15.5072 17.4781C15.1146 17.6943 14.692 17.8678 14.247 17.9972C13.9785 18.0752 13.7757 18.2962 13.7209 18.5703L13.3851 20.25H11.6149L11.2791 18.5703C11.2243 18.2963 11.0217 18.0755 10.7535 17.9973C10.308 17.8675 9.88555 17.6942 9.49259 17.4779C9.24751 17.3431 8.94773 17.3558 8.71498 17.511L7.29269 18.4592L6.04085 17.2073L6.98904 15.785C7.14426 15.5522 7.15695 15.2523 7.02195 15.0072C6.80572 14.6146 6.63216 14.192 6.50281 13.747C6.42477 13.4785 6.20385 13.2757 5.92967 13.2209L4.25 12.8851V11.1149L5.92967 10.7791C6.20366 10.7243 6.42449 10.5217 6.50267 10.2535C6.63251 9.80797 6.80583 9.38555 7.02208 8.99259C7.15695 8.74751 7.14421 8.44773 6.98904 8.21498L6.04085 6.79269L7.29269 5.54085L8.71498 6.48904C8.94781 6.64426 9.2477 6.65695 9.49282 6.52195C9.88542 6.30572 10.308 6.13216 10.753 6.00281C11.0215 5.92477 11.2243 5.70385 11.2791 5.42967ZM10.25 12C10.25 10.7575 11.2575 9.75 12.5 9.75C13.7425 9.75 14.75 10.7575 14.75 12C14.75 13.2428 13.7425 14.25 12.5 14.25C11.2575 14.25 10.25 13.2425 10.25 12ZM12.5 8.25C10.4291 8.25 8.75 9.92908 8.75 12C8.75 14.0709 10.4291 15.75 12.5 15.75C14.5709 15.75 16.25 14.0713 16.25 12C16.25 9.92908 14.5709 8.25 12.5 8.25Z" fill="#1780EA"></path></svg>
